<svg viewBox="0 0 980 520" xmlns="http://www.w3.org/2000/svg" font-family="ui-sans-serif, system-ui, -apple-system, 'Segoe UI', Roboto, sans-serif">
  <rect width="980" height="520" rx="16" fill="#0d1117"/>
  <rect x="1" y="1" width="978" height="518" rx="15" fill="none" stroke="#21262d"/>

  <text x="30" y="44" fill="#e6edf3" font-size="23" font-weight="700">🥊 Foreman Fleet Board</text>
  <text x="30" y="68" fill="#8b949e" font-size="13.5">One GitHub Project — see which fighter is on which issue, in real time.</text>

  <!-- column headers -->
  <rect x="22"  y="90" width="222" height="30" rx="7" fill="#1c2128"/><text x="38"  y="110" fill="#adbac7" font-size="13" font-weight="700">📋 Backlog</text><text x="228" y="110" text-anchor="end" fill="#7d8590" font-size="12">12</text>
  <rect x="256" y="90" width="222" height="30" rx="7" fill="#10262a"/><text x="272" y="110" fill="#39d0d8" font-size="13" font-weight="700">🥊 In the Ring</text><text x="462" y="110" text-anchor="end" fill="#39d0d8" font-size="12">3</text>
  <rect x="490" y="90" width="222" height="30" rx="7" fill="#2b2417"/><text x="506" y="110" fill="#d29922" font-size="13" font-weight="700">🙋 Needs You</text><text x="696" y="110" text-anchor="end" fill="#d29922" font-size="12">1</text>
  <rect x="724" y="90" width="234" height="30" rx="7" fill="#12261b"/><text x="740" y="110" fill="#3fb950" font-size="13" font-weight="700">✅ Shipped</text><text x="942" y="110" text-anchor="end" fill="#3fb950" font-size="12">28</text>

  <!-- ===== Backlog ===== -->
  <g>
    <rect x="32" y="132" width="202" height="60" rx="8" fill="#161b22" stroke="#30363d"/><rect x="32" y="133" width="4" height="58" fill="#7d8590"/>
    <text x="48" y="153" fill="#7d8590" font-size="11" font-family="ui-monospace,Menlo,monospace">M0-7</text>
    <text x="48" y="171" fill="#e6edf3" font-size="12.5" font-weight="600">OllamaDriver</text>
    <rect x="48" y="178" width="78" height="17" rx="8.5" fill="#21262d"/><text x="87" y="190" text-anchor="middle" fill="#7d8590" font-size="10.5">unassigned</text>

    <rect x="32" y="204" width="202" height="60" rx="8" fill="#161b22" stroke="#30363d"/><rect x="32" y="205" width="4" height="58" fill="#7d8590"/>
    <text x="48" y="225" fill="#7d8590" font-size="11" font-family="ui-monospace,Menlo,monospace">M1-8</text>
    <text x="48" y="243" fill="#e6edf3" font-size="12.5" font-weight="600">LoopContract schema</text>
    <rect x="48" y="250" width="78" height="17" rx="8.5" fill="#21262d"/><text x="87" y="262" text-anchor="middle" fill="#7d8590" font-size="10.5">unassigned</text>

    <rect x="32" y="276" width="202" height="60" rx="8" fill="#161b22" stroke="#30363d"/><rect x="32" y="277" width="4" height="58" fill="#7d8590"/>
    <text x="48" y="296" fill="#7d8590" font-size="11" font-family="ui-monospace,Menlo,monospace">M3-4</text>
    <text x="48" y="314" fill="#e6edf3" font-size="12.5" font-weight="600">Secret-scan hook</text>
    <rect x="48" y="321" width="78" height="17" rx="8.5" fill="#21262d"/><text x="87" y="333" text-anchor="middle" fill="#7d8590" font-size="10.5">unassigned</text>
  </g>

  <!-- ===== In the Ring ===== -->
  <g>
    <rect x="266" y="132" width="202" height="60" rx="8" fill="#161b22" stroke="#2f4f52"/><rect x="266" y="133" width="4" height="58" fill="#ff7eb6"/>
    <text x="282" y="153" fill="#7d8590" font-size="11" font-family="ui-monospace,Menlo,monospace">M1-3</text>
    <text x="456" y="153" text-anchor="end" fill="#7d8590" font-size="10.5">round 2/4</text>
    <text x="282" y="171" fill="#e6edf3" font-size="12.5" font-weight="600">Done-contract gate</text>
    <rect x="282" y="178" width="48" height="17" rx="8.5" fill="#33212b"/><text x="306" y="190" text-anchor="middle" fill="#ff7eb6" font-size="10.5">Kimi</text>

    <rect x="266" y="204" width="202" height="60" rx="8" fill="#161b22" stroke="#2f4f52"/><rect x="266" y="205" width="4" height="58" fill="#f0b72f"/>
    <text x="282" y="225" fill="#7d8590" font-size="11" font-family="ui-monospace,Menlo,monospace">M2-1</text>
    <text x="456" y="225" text-anchor="end" fill="#7d8590" font-size="10.5">3 candidates</text>
    <text x="282" y="243" fill="#e6edf3" font-size="12.5" font-weight="600">Best-of-N fusion</text>
    <rect x="282" y="250" width="56" height="17" rx="8.5" fill="#2e2a18"/><text x="310" y="262" text-anchor="middle" fill="#f0b72f" font-size="10.5">Fusion</text>

    <rect x="266" y="276" width="202" height="60" rx="8" fill="#161b22" stroke="#2f4f52"/><rect x="266" y="277" width="4" height="58" fill="#79c0ff"/>
    <text x="282" y="296" fill="#7d8590" font-size="11" font-family="ui-monospace,Menlo,monospace">M0-2</text>
    <text x="456" y="296" text-anchor="end" fill="#7d8590" font-size="10.5">round 1/4</text>
    <text x="282" y="314" fill="#e6edf3" font-size="12.5" font-weight="600">FighterDriver socket</text>
    <rect x="282" y="321" width="56" height="17" rx="8.5" fill="#1b2b3a"/><text x="310" y="333" text-anchor="middle" fill="#79c0ff" font-size="10.5">Gemini</text>
  </g>

  <!-- ===== Needs You ===== -->
  <g>
    <rect x="500" y="132" width="202" height="84" rx="8" fill="#1b1813" stroke="#5c4a1e"/><rect x="500" y="133" width="4" height="82" fill="#d29922"/>
    <text x="516" y="153" fill="#7d8590" font-size="11" font-family="ui-monospace,Menlo,monospace">M3-3</text>
    <text x="688" y="153" text-anchor="end" fill="#d29922" font-size="10.5">⚑ blocked</text>
    <text x="516" y="171" fill="#e6edf3" font-size="12.5" font-weight="600">Exclusion-list path</text>
    <text x="516" y="189" fill="#adbac7" font-size="11">Coach: REQUEST_CHANGES —</text>
    <text x="516" y="204" fill="#adbac7" font-size="11">touches auth, can't auto-merge</text>

    <rect x="500" y="228" width="202" height="44" rx="8" fill="#0d1117" stroke="#21262d" stroke-dasharray="4 4"/>
    <text x="601" y="247" text-anchor="middle" fill="#7d8590" font-size="11">The referee escalates here when</text>
    <text x="601" y="262" text-anchor="middle" fill="#7d8590" font-size="11">judgment — not code — is needed.</text>
  </g>

  <!-- ===== Shipped ===== -->
  <g>
    <rect x="734" y="132" width="214" height="60" rx="8" fill="#161b22" stroke="#26402c"/><rect x="734" y="133" width="4" height="58" fill="#c9d1d9"/>
    <text x="750" y="153" fill="#7d8590" font-size="11" font-family="ui-monospace,Menlo,monospace">M0-9</text>
    <text x="936" y="153" text-anchor="end" fill="#3fb950" font-size="10.5">✓ merged</text>
    <text x="750" y="171" fill="#e6edf3" font-size="12.5" font-weight="600">GitHub-App auth</text>
    <rect x="750" y="178" width="58" height="17" rx="8.5" fill="#21262d"/><text x="779" y="190" text-anchor="middle" fill="#c9d1d9" font-size="10.5">Ollama</text>

    <rect x="734" y="204" width="214" height="60" rx="8" fill="#161b22" stroke="#26402c"/><rect x="734" y="205" width="4" height="58" fill="#bc8cff"/>
    <text x="750" y="224" fill="#7d8590" font-size="11" font-family="ui-monospace,Menlo,monospace">M1-6</text>
    <text x="936" y="224" text-anchor="end" fill="#3fb950" font-size="10.5">✓ merged</text>
    <text x="750" y="242" fill="#e6edf3" font-size="12.5" font-weight="600">Referee router</text>
    <rect x="750" y="249" width="68" height="17" rx="8.5" fill="#251c33"/><text x="784" y="261" text-anchor="middle" fill="#bc8cff" font-size="10.5">claude-jr</text>

    <rect x="734" y="276" width="214" height="60" rx="8" fill="#161b22" stroke="#26402c"/><rect x="734" y="277" width="4" height="58" fill="#ff7eb6"/>
    <text x="750" y="296" fill="#7d8590" font-size="11" font-family="ui-monospace,Menlo,monospace">M0-1</text>
    <text x="936" y="296" text-anchor="end" fill="#3fb950" font-size="10.5">✓ merged</text>
    <text x="750" y="314" fill="#e6edf3" font-size="12.5" font-weight="600">De-hardcode roster</text>
    <rect x="750" y="321" width="48" height="17" rx="8.5" fill="#33212b"/><text x="774" y="333" text-anchor="middle" fill="#ff7eb6" font-size="10.5">Kimi</text>
  </g>

  <!-- footer -->
  <line x1="22" y1="430" x2="958" y2="430" stroke="#21262d"/>
  <text x="30" y="460" fill="#adbac7" font-size="12.5" font-weight="600">Attribution is GitHub-native, not a dashboard guess:</text>
  <text x="30" y="480" fill="#7d8590" font-size="12">commit <tspan fill="#adbac7">author</tspan> = the fighter · <tspan fill="#adbac7">committer</tspan> = foreman[bot] · <tspan fill="#adbac7">agent:*</tspan> label · Projects <tspan fill="#adbac7">Agent</tspan> field — every card knows exactly who's in it.</text>
</svg>
